<svg width="13" height="16" viewBox="0 0 13 16" fill="none" xmlns="http://www.w3.org/2000/svg">
<path d="M8.4 5.60001C8.17906 5.60001 8 5.77136 8 5.98278V13.2172C8 13.4285 8.17906 13.6 8.4 13.6C8.62094 13.6 8.8 13.4285 8.8 13.2172V5.98278C8.8 5.77136 8.62094 5.60001 8.4 5.60001Z" fill="#666666"/>
<path d="M4.4 5.60001C4.17906 5.60001 4 5.77136 4 5.98278V13.2172C4 13.4285 4.17906 13.6 4.4 13.6C4.62094 13.6 4.8 13.4285 4.8 13.2172V5.98278C4.8 5.77136 4.62094 5.60001 4.4 5.60001Z" fill="#666666"/>
<path d="M1.04826 4.76335V13.9953C1.04826 14.541 1.24535 15.0534 1.58964 15.4211C1.93234 15.7898 2.40926 15.9991 2.9084 16H9.89161C10.3909 15.9991 10.8678 15.7898 11.2104 15.4211C11.5547 15.0534 11.7517 14.541 11.7517 13.9953V4.76335C12.4361 4.57893 12.8796 3.90768 12.7881 3.19471C12.6964 2.48189 12.0982 1.94867 11.39 1.94852H9.50032V1.48014C9.50248 1.08626 9.34908 0.708039 9.07443 0.42979C8.79978 0.151688 8.42665 -0.0031709 8.03868 4.92333e-05H4.76132C4.37335 -0.0031709 4.00022 0.151688 3.72557 0.42979C3.45092 0.708039 3.29752 1.08626 3.29968 1.48014V1.94852H1.41C0.701813 1.94867 0.103635 2.48189 0.0119401 3.19471C-0.0796103 3.90768 0.363869 4.57893 1.04826 4.76335V4.76335ZM9.89161 15.2506H2.9084C2.27735 15.2506 1.78643 14.7002 1.78643 13.9953V4.79629H11.0136V13.9953C11.0136 14.7002 10.5227 15.2506 9.89161 15.2506ZM4.03785 1.48014C4.0354 1.28503 4.11095 1.09724 4.24734 0.959502C4.38358 0.821768 4.56899 0.746095 4.76132 0.749461H8.03868C8.23101 0.746095 8.41642 0.821768 8.55266 0.959502C8.68905 1.09709 8.7646 1.28503 8.76215 1.48014V1.94852H4.03785V1.48014ZM1.41 2.69793H11.39C11.7569 2.69793 12.0544 2.99989 12.0544 3.3724C12.0544 3.74491 11.7569 4.04687 11.39 4.04687H1.41C1.04307 4.04687 0.745641 3.74491 0.745641 3.3724C0.745641 2.99989 1.04307 2.69793 1.41 2.69793V2.69793Z" fill="#666666"/>
</svg>


