<svg width="14" height="14" viewBox="0 0 14 14" fill="none" xmlns="http://www.w3.org/2000/svg">
<path d="M13.8954 2.76323L11.2336 0.104933C11.0936 -0.0349776 10.8676 -0.0349776 10.7277 0.104933L8.47122 2.35785L1.4757 9.33901C1.42548 9.38206 1.38961 9.43588 1.36808 9.49686L0.0192016 13.5256C-0.0453724 13.7121 0.0586635 13.9166 0.245211 13.9812C0.320547 14.0063 0.399471 14.0063 0.47122 13.9812L4.50351 12.6323C4.56449 12.6108 4.6183 12.5749 4.66135 12.5247L11.6425 5.52915L13.8954 3.26906C14.0353 3.12915 14.0353 2.90314 13.8954 2.76323ZM0.926825 13.0735L1.86315 10.2753L3.72503 12.1372L0.926825 13.0735ZM4.38871 11.7821L2.2183 9.61166L8.72234 3.11839L10.882 5.27803L4.38871 11.7821ZM11.3878 4.7722L9.23176 2.61256L10.9824 0.865471L13.1349 3.01794L11.3878 4.7722Z" fill="#76797E"/>
</svg>
