<svg width="25" height="25" viewBox="0 0 25 25" fill="none" xmlns="http://www.w3.org/2000/svg">
<g clip-path="url(#clip0)">
<path d="M12.1242 0C5.43866 0 0 5.43866 0 12.1242C0 18.8098 5.43866 24.2484 12.1242 24.2484C18.8098 24.2484 24.2484 18.8098 24.2484 12.1242C24.2484 5.43866 18.8098 0 12.1242 0ZM17.4286 13.1345H13.1345V17.4286C13.1345 17.9863 12.682 18.4389 12.1242 18.4389C11.5664 18.4389 11.1139 17.9863 11.1139 17.4286V13.1345H6.81988C6.2621 13.1345 5.80959 12.682 5.80959 12.1242C5.80959 11.5664 6.2621 11.1139 6.81988 11.1139H11.1139V6.81988C11.1139 6.2621 11.5664 5.80959 12.1242 5.80959C12.682 5.80959 13.1345 6.2621 13.1345 6.81988V11.1139H17.4286C17.9863 11.1139 18.4389 11.5664 18.4389 12.1242C18.4389 12.682 17.9863 13.1345 17.4286 13.1345Z" fill="#D3D3D3"/>
</g>
<defs>
<clipPath id="clip0">
<rect width="24.2484" height="24.2484" fill="white"/>
</clipPath>
</defs>
</svg>
