<svg width="21" height="25" viewBox="0 0 21 25" fill="none" xmlns="http://www.w3.org/2000/svg">
<path d="M9.96231 11.6806C11.567 11.6806 12.9565 11.1051 14.0919 9.96952C15.2273 8.83417 15.8028 7.44499 15.8028 5.84011C15.8028 4.23578 15.2273 2.84643 14.0917 1.7107C12.9562 0.575538 11.5668 0 9.96231 0C8.35742 0 6.96825 0.575538 5.8329 1.71089C4.69755 2.84624 4.12183 4.2356 4.12183 5.84011C4.12183 7.44499 4.69755 8.83435 5.83309 9.9697C6.96862 11.1049 8.35798 11.6806 9.96231 11.6806Z" fill="#D3D3D3"/>
<path d="M20.1816 18.6459C20.1488 18.1734 20.0826 17.658 19.9851 17.1137C19.8867 16.5653 19.76 16.047 19.6083 15.5732C19.4516 15.0835 19.2384 14.5999 18.975 14.1365C18.7016 13.6555 18.3804 13.2366 18.02 12.892C17.6432 12.5314 17.1818 12.2415 16.6482 12.03C16.1165 11.8197 15.5273 11.7131 14.897 11.7131C14.6495 11.7131 14.4101 11.8147 13.9478 12.1157C13.6632 12.3013 13.3304 12.5159 12.9589 12.7532C12.6413 12.9556 12.211 13.1452 11.6795 13.3169C11.1609 13.4847 10.6344 13.5698 10.1147 13.5698C9.59508 13.5698 9.06875 13.4847 8.54963 13.3169C8.01868 13.1454 7.58837 12.9558 7.27109 12.7534C6.90313 12.5183 6.57012 12.3037 6.28134 12.1155C5.81958 11.8145 5.58 11.713 5.33247 11.713C4.70198 11.713 4.11294 11.8197 3.58143 12.0302C3.04826 12.2413 2.58668 12.5312 2.20947 12.8921C1.84927 13.237 1.52792 13.6556 1.25486 14.1365C0.991605 14.5999 0.778484 15.0833 0.621603 15.5734C0.470087 16.0472 0.343362 16.5653 0.244941 17.1137C0.147446 17.6572 0.0812154 18.1728 0.0484703 18.6464C0.0162801 19.1104 0 19.592 0 20.0783C0 21.3441 0.402377 22.3688 1.19585 23.1246C1.97951 23.8703 3.01644 24.2486 4.27741 24.2486H15.9532C17.2142 24.2486 18.2507 23.8705 19.0346 23.1246C19.8282 22.3694 20.2306 21.3445 20.2306 20.0781C20.2304 19.5896 20.2139 19.1076 20.1816 18.6459Z" fill="#D3D3D3"/>
</svg>
